<svg width="54" height="54" viewBox="0 0 54 54" fill="none" xmlns="http://www.w3.org/2000/svg">
<g clip-path="url(#clip0_79_1380)">
<path d="M15.8574 10.7602C16.17 10.4476 16.6769 10.447 16.9901 10.7602C17.3032 11.0734 17.3027 11.5802 16.9901 11.8929L3.0665 25.8164L52.1019 25.8164C52.5448 25.8164 52.9027 26.1743 52.9027 26.6172C52.9027 27.0601 52.5448 27.418 52.1019 27.418L3.0665 27.418L16.9901 41.3415C17.3032 41.6547 17.3027 42.1616 16.9901 42.4742C16.6774 42.7868 16.1706 42.7873 15.8574 42.4742L0.566757 27.1835C0.493134 27.1099 0.434806 27.021 0.394029 26.9236C0.312479 26.7276 0.312479 26.5068 0.394029 26.3108C0.434239 26.2128 0.493134 26.1245 0.566757 26.0509L15.8574 10.7602Z" fill="#D8D8D8"/>
</g>
<defs>
<clipPath id="clip0_79_1380">
<rect width="37.6422" height="37.6422" fill="white" transform="matrix(-0.707107 -0.707107 -0.707107 0.707107 53.2344 26.6172)"/>
</clipPath>
</defs>
</svg>
