<svg width="54" height="54" viewBox="0 0 54 54" fill="none" xmlns="http://www.w3.org/2000/svg">
<g clip-path="url(#clip0_79_1378)">
<path d="M37.6113 10.7602C37.2987 10.4476 36.7919 10.447 36.4787 10.7602C36.1655 11.0734 36.1661 11.5802 36.4787 11.8929L50.4023 25.8164L1.36681 25.8164C0.923948 25.8164 0.566034 26.1743 0.566034 26.6172C0.566034 27.0601 0.923948 27.418 1.36681 27.418L50.4023 27.418L36.4787 41.3415C36.1655 41.6547 36.1661 42.1616 36.4787 42.4742C36.7913 42.7868 37.2982 42.7873 37.6113 42.4742L52.902 27.1835C52.9756 27.1099 53.0339 27.021 53.0747 26.9236C53.1563 26.7276 53.1563 26.5068 53.0747 26.3108C53.0345 26.2128 52.9756 26.1245 52.902 26.0509L37.6113 10.7602Z" fill="#D8D8D8"/>
</g>
<defs>
<clipPath id="clip0_79_1378">
<rect width="37.6422" height="37.6422" fill="white" transform="translate(0.234375 26.6172) rotate(-45)"/>
</clipPath>
</defs>
</svg>
